<svg width="48" height="48" viewBox="0 0 48 48" fill="none" xmlns="http://www.w3.org/2000/svg">
<path d="M0 14C0 6.26801 6.26801 0 14 0H34C41.732 0 48 6.26801 48 14V34C48 41.732 41.732 48 34 48H14C6.26801 48 0 41.732 0 34V14Z" fill="url(#paint0_linear_188_1033)"/>
<path d="M23.9999 35.6666C30.4432 35.6666 35.6666 30.4432 35.6666 23.9999C35.6666 17.5566 30.4432 12.3333 23.9999 12.3333C17.5566 12.3333 12.3333 17.5566 12.3333 23.9999C12.3333 30.4432 17.5566 35.6666 23.9999 35.6666Z" stroke="white" stroke-width="2.33333" stroke-linecap="round" stroke-linejoin="round"/>
<path d="M23.9999 12.3333C21.0042 15.4788 19.3333 19.6561 19.3333 23.9999C19.3333 28.3437 21.0042 32.5211 23.9999 35.6666C26.9956 32.5211 28.6666 28.3437 28.6666 23.9999C28.6666 19.6561 26.9956 15.4788 23.9999 12.3333Z" stroke="white" stroke-width="2.33333" stroke-linecap="round" stroke-linejoin="round"/>
<path d="M12.3333 24H35.6666" stroke="white" stroke-width="2.33333" stroke-linecap="round" stroke-linejoin="round"/>
<defs>
<linearGradient id="paint0_linear_188_1033" x1="0" y1="0" x2="48" y2="48" gradientUnits="userSpaceOnUse">
<stop stop-color="#615FFF"/>
<stop offset="1" stop-color="#4F39F6"/>
</linearGradient>
</defs>
</svg>
