<svg width="48" height="48" viewBox="0 0 48 48" fill="none" xmlns="http://www.w3.org/2000/svg">
<path d="M0 14C0 6.26801 6.26801 0 14 0H34C41.732 0 48 6.26801 48 14V34C48 41.732 41.732 48 34 48H14C6.26801 48 0 41.732 0 34V14Z" fill="url(#paint0_linear_188_1025)"/>
<path d="M28.0565 25.0383L29.824 34.9853C29.8438 35.1025 29.8273 35.2228 29.7768 35.3304C29.7264 35.4379 29.6443 35.5275 29.5415 35.5871C29.4388 35.6467 29.3203 35.6735 29.2019 35.664C29.0835 35.6544 28.9708 35.609 28.879 35.5337L24.7023 32.3988C24.5007 32.2482 24.2557 32.1668 24.004 32.1668C23.7524 32.1668 23.5074 32.2482 23.3058 32.3988L19.1221 35.5325C19.0303 35.6077 18.9178 35.6531 18.7995 35.6626C18.6813 35.6722 18.5629 35.6455 18.4602 35.586C18.3576 35.5266 18.2754 35.4372 18.2249 35.3299C18.1743 35.2226 18.1576 35.1024 18.1771 34.9853L19.9435 25.0383" stroke="white" stroke-width="2.33333" stroke-linecap="round" stroke-linejoin="round"/>
<path d="M24 26.3333C27.866 26.3333 31 23.1992 31 19.3333C31 15.4673 27.866 12.3333 24 12.3333C20.134 12.3333 17 15.4673 17 19.3333C17 23.1992 20.134 26.3333 24 26.3333Z" stroke="white" stroke-width="2.33333" stroke-linecap="round" stroke-linejoin="round"/>
<defs>
<linearGradient id="paint0_linear_188_1025" x1="0" y1="0" x2="48" y2="48" gradientUnits="userSpaceOnUse">
<stop stop-color="#2B7FFF"/>
<stop offset="1" stop-color="#155DFC"/>
</linearGradient>
</defs>
</svg>
