<svg width="48" height="48" viewBox="0 0 48 48" fill="none" xmlns="http://www.w3.org/2000/svg">
<path d="M0 14C0 6.26801 6.26801 0 14 0H34C41.732 0 48 6.26801 48 14V34C48 41.732 41.732 48 34 48H14C6.26801 48 0 41.732 0 34V14Z" fill="url(#paint0_linear_188_1042)"/>
<path d="M21.5933 28.0833C21.4891 27.6795 21.2787 27.3111 20.9838 27.0162C20.689 26.7214 20.3205 26.511 19.9168 26.4068L12.7593 24.5611C12.6371 24.5265 12.5297 24.4529 12.4531 24.3517C12.3766 24.2504 12.3352 24.1269 12.3352 24C12.3352 23.873 12.3766 23.7496 12.4531 23.6483C12.5297 23.547 12.6371 23.4735 12.7593 23.4388L19.9168 21.592C20.3204 21.4879 20.6887 21.2776 20.9836 20.983C21.2784 20.6884 21.4889 20.3202 21.5933 19.9166L23.4389 12.7591C23.4732 12.6365 23.5467 12.5285 23.6481 12.4516C23.7496 12.3747 23.8734 12.333 24.0007 12.333C24.128 12.333 24.2518 12.3747 24.3532 12.4516C24.4546 12.5285 24.5281 12.6365 24.5624 12.7591L26.4069 19.9166C26.5111 20.3204 26.7215 20.6888 27.0164 20.9837C27.3112 21.2785 27.6797 21.489 28.0834 21.5931L35.2409 23.4376C35.364 23.4716 35.4726 23.545 35.5499 23.6466C35.6273 23.7481 35.6691 23.8723 35.6691 24C35.6691 24.1276 35.6273 24.2518 35.5499 24.3534C35.4726 24.455 35.364 24.5283 35.2409 24.5623L28.0834 26.4068C27.6797 26.511 27.3112 26.7214 27.0164 27.0162C26.7215 27.3111 26.5111 27.6795 26.4069 28.0833L24.5613 35.2408C24.5269 35.3634 24.4535 35.4714 24.3521 35.5483C24.2506 35.6253 24.1268 35.6669 23.9995 35.6669C23.8722 35.6669 23.7484 35.6253 23.647 35.5483C23.5455 35.4714 23.4721 35.3634 23.4378 35.2408L21.5933 28.0833Z" stroke="white" stroke-width="2.33333" stroke-linecap="round" stroke-linejoin="round"/>
<path d="M33.3333 13.5V18.1667" stroke="white" stroke-width="2.33333" stroke-linecap="round" stroke-linejoin="round"/>
<path d="M35.6667 15.8333H31" stroke="white" stroke-width="2.33333" stroke-linecap="round" stroke-linejoin="round"/>
<path d="M14.6667 29.8333V32.1666" stroke="white" stroke-width="2.33333" stroke-linecap="round" stroke-linejoin="round"/>
<path d="M15.8333 31H13.5" stroke="white" stroke-width="2.33333" stroke-linecap="round" stroke-linejoin="round"/>
<defs>
<linearGradient id="paint0_linear_188_1042" x1="0" y1="0" x2="48" y2="48" gradientUnits="userSpaceOnUse">
<stop stop-color="#8E51FF"/>
<stop offset="1" stop-color="#7F22FE"/>
</linearGradient>
</defs>
</svg>
