<svg width="268" height="113" viewBox="0 0 268 113" fill="none" xmlns="http://www.w3.org/2000/svg">
<path d="M54.3907 112.729H53.5781L54.6229 106.131H55.5711C57.6028 106.131 58.1252 106.828 57.9317 108.047C57.7189 109.44 56.5772 109.962 55.3195 109.962H54.8551L54.3907 112.729ZM54.9325 109.227H55.2034C56.0355 109.227 56.9836 109.072 57.1384 108.027C57.3125 107.002 56.345 106.866 55.5323 106.866H55.3195L54.9325 109.227Z" fill="white"/>
<path d="M59.4411 111.065L58.4349 112.71H57.5448L61.7823 105.841L63.8527 112.71H62.9626L62.4789 111.065H59.4411ZM61.4921 107.66L59.9054 110.33H62.2467L61.4921 107.66Z" fill="white"/>
<path d="M69.5415 112.729H68.5353L67.0454 109.943H66.6972L66.2521 112.729H65.4201L66.4649 106.131H67.4711C68.0516 106.131 68.6901 106.131 69.1739 106.441C69.677 106.77 69.8898 107.389 69.793 108.008C69.6382 108.956 68.8836 109.73 67.9161 109.846L69.5415 112.729ZM66.8133 109.246H67.0841C67.9161 109.246 68.8643 109.092 69.0191 108.047C69.1738 107.021 68.2257 106.866 67.4131 106.866H67.2002L66.8133 109.246Z" fill="white"/>
<path d="M72.8306 112.729H72.0179L72.9467 106.886H71.3794L71.4955 106.131H75.4427L75.3266 106.886H73.7594L72.8306 112.729Z" fill="white"/>
<path d="M86.646 109.439C86.3364 111.393 84.5369 112.883 82.6407 112.883C80.7251 112.883 79.4287 111.413 79.7383 109.439C80.0285 107.543 81.8474 105.995 83.7436 105.995C85.6205 105.995 86.9556 107.543 86.646 109.439ZM85.8333 109.439C86.0655 107.988 85.1754 106.769 83.6275 106.769C82.0796 106.769 80.8025 107.988 80.5703 109.439C80.3187 110.948 81.3443 112.109 82.7761 112.109C84.1886 112.09 85.5817 110.929 85.8333 109.439Z" fill="white"/>
<path d="M89.7033 106.886L89.4131 108.743H91.6963L91.5802 109.498H89.297L88.7745 112.729H87.9619L89.0067 106.131H92.1994L92.0833 106.886H89.7033Z" fill="white"/>
<path d="M98.5265 112.729H97.7139L98.6426 106.886H97.0753L97.1914 106.131H101.139L101.023 106.886H99.4553L98.5265 112.729Z" fill="white"/>
<path d="M106.285 108.801L106.711 106.15H107.524L106.479 112.748H105.666L106.169 109.575H103.035L102.532 112.748H101.719L102.764 106.15H103.577L103.151 108.801H106.285Z" fill="white"/>
<path d="M109.769 106.131H113.309L113.193 106.886H110.465L110.175 108.724H112.806L112.69 109.479H110.059L109.672 111.975H112.4L112.284 112.729H108.743L109.769 106.131Z" fill="white"/>
<path d="M118.959 106.131H122.5L122.384 106.886H119.656L119.366 108.724H121.997L121.881 109.479H119.25L118.863 111.975H121.591L121.475 112.729H117.934L118.959 106.131Z" fill="white"/>
<path d="M124.184 106.131H125.113L126.08 108.53L127.899 106.131H128.828L126.448 109.266L127.899 112.729H126.989L125.867 110.02L123.816 112.729H122.907L125.538 109.266L124.184 106.131Z" fill="white"/>
<path d="M135.252 107.388C134.845 106.963 134.226 106.75 133.607 106.75C132.136 106.75 130.801 107.988 130.589 109.439C130.356 110.89 131.285 112.109 132.756 112.109C133.394 112.109 134.071 111.858 134.613 111.432L134.458 112.4C133.897 112.69 133.22 112.864 132.64 112.864C130.763 112.864 129.447 111.374 129.737 109.459C130.047 107.504 131.846 105.995 133.801 105.995C134.381 105.995 134.942 106.131 135.387 106.44L135.252 107.388Z" fill="white"/>
<path d="M137.477 106.131H141.018L140.902 106.886H138.173L137.883 108.724H140.515L140.399 109.479H137.767L137.38 111.975H140.108L139.992 112.729H136.451L137.477 106.131Z" fill="white"/>
<path d="M142.972 111.975H144.984L144.868 112.729H142.043L143.088 106.131H143.901L142.972 111.975Z" fill="white"/>
<path d="M147.403 111.975H149.415L149.299 112.729H146.474L147.519 106.131H148.332L147.403 111.975Z" fill="white"/>
<path d="M151.911 106.131H155.452L155.336 106.886H152.608L152.318 108.724H154.949L154.833 109.479H152.202L151.815 111.975H154.543L154.427 112.729H150.886L151.911 106.131Z" fill="white"/>
<path d="M157.484 105.821L161.605 111.007L162.379 106.131H163.192L162.108 113L157.987 107.814L157.213 112.729H156.381L157.484 105.821Z" fill="white"/>
<path d="M170.042 107.388C169.635 106.963 169.016 106.75 168.397 106.75C166.926 106.75 165.591 107.988 165.379 109.439C165.146 110.89 166.075 112.109 167.546 112.109C168.184 112.109 168.861 111.858 169.403 111.432L169.248 112.4C168.687 112.69 168.01 112.864 167.43 112.864C165.553 112.864 164.237 111.374 164.527 109.459C164.837 107.504 166.636 105.995 168.59 105.995C169.171 105.995 169.732 106.131 170.177 106.44L170.042 107.388Z" fill="white"/>
<path d="M172.267 106.131H175.808L175.692 106.886H172.963L172.673 108.724H175.305L175.189 109.479H172.557L172.17 111.975H174.898L174.782 112.729H171.241L172.267 106.131Z" fill="white"/>
<path d="M186.933 109.401L186.895 109.672C186.624 111.491 185.115 112.864 183.257 112.864C181.399 112.864 180.18 111.278 180.471 109.44C180.78 107.543 182.541 105.976 184.437 105.976C185.463 105.976 186.411 106.441 186.914 107.253L186.256 107.795C185.888 107.156 185.153 106.711 184.341 106.711C182.87 106.711 181.516 107.911 181.283 109.382C181.071 110.755 181.999 112.071 183.412 112.071C184.437 112.071 185.676 111.181 185.888 110.117H184.186L184.302 109.362H186.933V109.401Z" fill="white"/>
<path d="M192.37 112.729H191.364L189.874 109.943H189.526L189.081 112.729H188.268L189.313 106.131H190.319C190.9 106.131 191.538 106.131 192.022 106.441C192.525 106.77 192.738 107.389 192.641 108.008C192.487 108.956 191.732 109.73 190.764 109.846L192.37 112.729ZM189.642 109.246H189.913C190.745 109.246 191.693 109.092 191.848 108.047C192.003 107.021 191.055 106.866 190.242 106.866H190.029L189.642 109.246Z" fill="white"/>
<path d="M201.039 109.439C200.73 111.393 198.95 112.883 197.034 112.883C195.118 112.883 193.822 111.413 194.132 109.439C194.422 107.543 196.241 105.995 198.137 105.995C200.033 105.995 201.349 107.543 201.039 109.439ZM200.227 109.439C200.459 107.988 199.569 106.769 198.021 106.769C196.473 106.769 195.196 107.988 194.964 109.439C194.712 110.948 195.738 112.109 197.169 112.109C198.582 112.09 199.975 110.929 200.227 109.439Z" fill="white"/>
<path d="M204.116 106.131L203.496 110.02C203.322 111.104 203.496 112.091 204.754 112.091C206.031 112.091 206.496 111.085 206.67 110.02L207.289 106.131H208.102L207.444 110.311C207.212 111.762 206.128 112.865 204.619 112.865C203.11 112.865 202.394 111.762 202.626 110.311L203.284 106.131H204.116Z" fill="white"/>
<path d="M210.095 112.729H209.282L210.327 106.131H211.275C213.307 106.131 213.829 106.828 213.635 108.047C213.423 109.44 212.262 109.962 211.023 109.962H210.559L210.095 112.729ZM210.636 109.227H210.907C211.739 109.227 212.687 109.072 212.842 108.027C213.016 107.002 212.049 106.866 211.236 106.866H211.023L210.636 109.227Z" fill="white"/>
<path d="M156.168 37.8081V53.8099H162.689V32.429L156.168 37.8081Z" fill="white"/>
<path d="M111.046 37.8081V53.8099H104.525V32.429L111.046 37.8081Z" fill="white"/>
<path d="M162.689 16.2341V24.8252L143.494 41.2915L104.525 8.53305V0L143.456 32.7197L162.689 16.2341Z" fill="white"/>
<path d="M104.525 16.2341V24.8252L123.72 41.2915L162.689 8.53305V0L123.758 32.7197L104.525 16.2341Z" fill="white"/>
<path d="M3.38613 92.2379H0V71.3988H0.290257L14.2218 84.1499L27.5921 71.3988H27.8824V92.2379H24.4962V78.4032L14.2991 88.1746H14.0282L3.34742 78.4032V92.2379H3.38613Z" fill="white"/>
<path d="M37.4024 92.2379H34.0162V71.3988H34.3065L48.238 84.1499L61.6084 71.3988H61.8986V92.2379H58.5125V78.4032L48.3154 88.1746H48.0445L37.3637 78.4032V92.2379H37.4024Z" fill="white"/>
<path d="M116.696 92.6441C108.414 92.6441 104.099 89.8578 104.099 83.5306V71.7275H107.485V83.163C107.485 87.9616 109.749 89.9739 116.618 89.9739C123.487 89.9739 125.751 88.0003 125.751 83.2404V74.2817L129.137 71.7275V83.4532C129.137 89.7804 124.977 92.6441 116.696 92.6441Z" fill="white"/>
<path d="M160.58 82.0026C160.58 89.2392 155.22 92.2578 145.99 92.2578H134.923V71.7475H145.99C155.046 71.7281 160.58 74.9014 160.58 82.0026ZM138.289 89.4521H145.333C153.053 89.4521 157.039 87.9815 157.039 82.0606C157.039 76.3139 153.324 74.5338 145.333 74.5338H138.289V89.4521Z" fill="white"/>
<path d="M165.475 71.7275H168.861V92.2378H165.475V71.7275Z" fill="white"/>
<path d="M202.684 71.7275H206.07V92.2378H202.684V71.7275Z" fill="white"/>
<path d="M212.823 71.4186L233.43 86.5304V71.7476H236.816V92.7416H236.584L215.9 77.3588V92.2578H212.514V71.4186H212.823Z" fill="white"/>
<path d="M253.902 83.6667L256.146 80.8804H267.214V89.2199C264.679 91.387 260.829 92.6447 255.488 92.6447C247.439 92.6447 241.383 89.2973 241.383 82.0607C241.383 74.9595 247.497 71.3799 255.488 71.3799C260.558 71.3799 263.963 72.3667 266.537 74.437L264.737 76.7009C262.86 75.1143 260.596 74.0307 255.43 74.0307C248.755 74.0307 244.943 76.5655 244.943 81.9833C244.943 87.5366 248.755 89.9745 255.43 89.9745C259.939 89.9745 262.493 88.9877 264.099 87.8654V83.6667H253.902Z" fill="white"/>
<path d="M88.6393 71.1087H88.3878L74.1854 92.2382H77.6683L80.3385 88.2716L82.196 85.5046H82.1767L88.4458 76.1783L99.4943 92.2382H103.132L88.6393 71.1087Z" fill="white"/>
<path d="M198.176 71.7469V71.7275H173.37V71.7663L175.653 74.6299H184.089V92.2378H187.476V74.6299H195.873L198.176 71.7469Z" fill="white"/>
</svg>
